<svg xmlns="http://www.w3.org/2000/svg" viewBox="0 0 582.1 706.98"><defs><style>.cls-1{fill:#933;}.cls-2{fill:#1d1d1b;}</style></defs><g id="lacre"><path class="cls-1" d="M817.53,365.77C804,315.17,769,281,724,256.93c-33-17.69-67-33.61-100.26-50.94-55.5-28.94-107.73-22.68-154.11,19.06-19.68,17.72-39.89,34.13-67.13,39.69-8.4,1.71-16.38,7.75-23.48,13.19-39.42,30.23-61.68,71.38-73.4,118.71-5.81,23.43-8.52,48.32,3.35,69.72,15.24,27.48,16.18,55.65,13.85,85.27-1.94,24.82,3.56,48.07,23.1,64.66,24,20.39,48.89,39.89,74.58,58.1,22.21,15.74,47.86,23.27,75.36,24.21,36.29,1.25,72.56,3,105.91,4.47,50.31,2.87,93.23-8.24,127.12-43.35,26.11-27,52-54.42,76.09-83.21,7.31-8.73,12-22.7,11.79-34.13-.87-39,1.19-77.55,4.78-116.32C823.38,406.18,822.65,384.92,817.53,365.77ZM566.29,676.41c-119.9,0-217.11-97.21-217.11-217.11s97.21-217.11,217.11-217.11S783.4,339.39,783.4,459.3,686.2,676.41,566.29,676.41Z" transform="translate(-274.86 -188.16)"/><path class="cls-1" d="M566.29,250.66c-115.23,0-208.64,93.41-208.64,208.64C357.65,563,433.26,649,532.33,665.17l111-304.76,66,176.2q4.43,11.45,13.61,13.88H680.22c2.56-.51,4.31-1.63,5.23-3.34s.62-5-.92-9.9l-15-41.77h-52.7l-13.49,37.66q-5.24,15.81,1.86,17.35-28.5,22.1-49.09,66.44c-12.07,26-14.16,31.45-22.71,48.42a209.87,209.87,0,0,0,32.9,2.59c115.23,0,208.64-93.41,208.64-208.64S681.52,250.66,566.29,250.66Zm2.4,121.18V475.56Q568.1,514,548.45,536t-47.23,22q-27.57,0-47.23-22t-20.12-60.47L433.75,372q-1-11.57-11.52-11.56H468.3q-10,0-11.4,10.79V475.56Q457.25,509,470,523.69t31.18,14.72q18.49,0,31.41-15.17t12.91-49.48V371.2q-1.51-10.8-11.4-10.79H580.2Q569.63,360.41,568.69,371.84Z" transform="translate(-274.86 -188.16)"/><polygon class="cls-1" points="349.18 287.4 387.68 287.4 368.49 233.03 349.18 287.4"/></g><g id="texto"><path class="cls-2" d="M292.62,751.8c-2.57,0-4,1.26-4.39,3.77V792q.13,11.65,5.07,16.8a16.55,16.55,0,0,0,24.13-.16q5-5.29,5-17.27v-35.8A4,4,0,0,0,318,751.8h17.76q-4.08,0-4.44,4V792q-.22,13.41-7.81,21.11a25.42,25.42,0,0,1-36.43,0q-7.58-7.7-7.76-21.11l0-36.16q-.41-4-4.44-4Zm27.19-12.38.09.09-12.2,9.73h-5.21l8.12-9.82Z" transform="translate(-274.86 -188.16)"/><path class="cls-2" d="M350.94,769.66q-4.49,0-4.48,4.48v37.64h21a6.22,6.22,0,0,0,4.13-2.46,18.66,18.66,0,0,0,2.24-3.91v12.74H335.6q4.48,0,4.49-4.48V774.14q0-4.49-4.49-4.48Z" transform="translate(-274.86 -188.16)"/><path class="cls-2" d="M424.21,769.66v12.78a16.79,16.79,0,0,0-2.2-3.88,6.6,6.6,0,0,0-4.18-2.53H406v37.64a4.07,4.07,0,0,0,1.44,3.25,4.6,4.6,0,0,0,3.05,1.23q-1.8.09-4.42,3.08a13.15,13.15,0,0,0-3.25,6.43,13.65,13.65,0,0,0-3.28-6.43q-2.59-3-4.4-3.08a4.63,4.63,0,0,0,3.12-1.32,4.16,4.16,0,0,0,1.37-3.16V776H387.78a6.67,6.67,0,0,0-4.2,2.53,14.68,14.68,0,0,0-2.17,3.88V769.66h42.8Z" transform="translate(-274.86 -188.16)"/><path class="cls-2" d="M443.36,769.66q-4.49,0-4.48,4.48v39.53q.14,4.49,4.48,4.48c-1.22.06-2.71,1.09-4.44,3.08a13.37,13.37,0,0,0-3.23,6.43,13.6,13.6,0,0,0-3.3-6.43c-1.75-2-3.2-3-4.37-3.08q4.49,0,4.48-4.48V774.14q0-4.49-4.48-4.48Z" transform="translate(-274.86 -188.16)"/><path class="cls-2" d="M460.41,769.66,471,808.51l10.58-38.85h14.59c-3,0-4.45,1.49-4.45,4.48v53.52a12.68,12.68,0,0,0-4.62-6.43q-3.68-3-6.23-3.08,4.39,0,4.48-4.48V776.83L471,827.35,456.69,777v36.7q0,4.44,4.44,4.48-2.56.09-6.24,3.08a12.44,12.44,0,0,0-4.57,6.43V774.14q0-4.49-4.49-4.48Z" transform="translate(-274.86 -188.16)"/><path class="cls-2" d="M492.8,827.66,517,769.39l18.44,44.37a15.35,15.35,0,0,0,1.81,2.46,6.38,6.38,0,0,0,3.75,1.93H526.4q3.47,0,1.93-4.26l-4-10.18H509.67l-4,10.18q-1.49,4.26,2,4.26a19.28,19.28,0,0,0-8.59,3.66A41.2,41.2,0,0,0,492.8,827.66Zm29.83-28.39L517,785l-5.61,14.27Z" transform="translate(-274.86 -188.16)"/><path class="cls-2" d="M587.73,751.8l25.44,61.51a7.56,7.56,0,0,0,5.25,4.84H602a2.77,2.77,0,0,0,2-1.16c.36-.6.24-1.75-.36-3.46L597.83,799H577.5l-5.2,13.15c-1.35,3.68-1.11,5.69.72,6q-11,7.73-18.94,23.2t-14.94,27.81Zm7.4,40.2-7.4-19-7.45,19Z" transform="translate(-274.86 -188.16)"/><path class="cls-2" d="M630.08,769.66q-4.49,0-4.48,4.48v37.64h20.95a6.18,6.18,0,0,0,4.12-2.46,18.3,18.3,0,0,0,2.25-3.91v12.74H614.74q4.49,0,4.49-4.48V774.14q0-4.49-4.49-4.48Z" transform="translate(-274.86 -188.16)"/><path class="cls-2" d="M672.7,769.66q-4.49,0-4.48,4.48v39.53q.13,4.49,4.48,4.48-1.83.09-4.44,3.08a13.37,13.37,0,0,0-3.23,6.43,13.6,13.6,0,0,0-3.3-6.43c-1.75-2-3.2-3-4.37-3.08q4.49,0,4.49-4.48V774.14q0-4.49-4.49-4.48Z" transform="translate(-274.86 -188.16)"/><path class="cls-2" d="M670.55,827.66l24.23-58.27,18.43,44.37a16.16,16.16,0,0,0,1.82,2.46,6.35,6.35,0,0,0,3.75,1.93H704.15c2.3,0,3-1.42,1.93-4.26l-4-10.18H687.42l-4,10.18q-1.47,4.26,2,4.26a19.28,19.28,0,0,0-8.59,3.66A40.73,40.73,0,0,0,670.55,827.66Zm29.83-28.39L694.78,785l-5.61,14.27Z" transform="translate(-274.86 -188.16)"/><path class="cls-2" d="M729,769.66l22.34,36.65V774.14q0-4.49-4.44-4.48h15.3q-4.46,0-4.45,4.48v53.52l-31.22-51.77v37.78a4.77,4.77,0,0,0,1.14,3.12,4.07,4.07,0,0,0,3.3,1.36q-2.55.09-6.24,3.08a12.5,12.5,0,0,0-4.57,6.43V774.14q0-4.49-4.49-4.48Z" transform="translate(-274.86 -188.16)"/><path class="cls-2" d="M808.68,818.15H760.59L796,776H773.56a6.67,6.67,0,0,0-4.2,2.53,15,15,0,0,0-2.18,3.88V769.66h47a7.51,7.51,0,0,0-4,1.36,23.26,23.26,0,0,0-3.88,3.12L774.9,811.78h27.41a6.13,6.13,0,0,0,4.15-2.46,19,19,0,0,0,2.22-3.91Z" transform="translate(-274.86 -188.16)"/><path class="cls-2" d="M808.73,827.66,833,769.39l18.44,44.37a16.16,16.16,0,0,0,1.82,2.46,6.35,6.35,0,0,0,3.75,1.93H842.33c2.3,0,2.95-1.42,1.93-4.26l-4-10.18H825.6l-4,10.18c-1,2.84-.33,4.26,2,4.26a19.23,19.23,0,0,0-8.59,3.66A40.73,40.73,0,0,0,808.73,827.66Zm29.83-28.39L833,785l-5.6,14.27Z" transform="translate(-274.86 -188.16)"/><path class="cls-2" d="M312.39,881.58a2.42,2.42,0,0,0-2.15.31,9.11,9.11,0,0,0-1.45,1.46,9,9,0,0,1,.41-2.45,5.6,5.6,0,0,1,1.44-2.31,11.9,11.9,0,0,1,3.85-2.36,14.06,14.06,0,0,1,5.21-.91,13.21,13.21,0,0,1,5.39.95,43.24,43.24,0,0,1,4.44,2.31c-.65-.16-1.61-.32-2.88-.51a7.73,7.73,0,0,0-3.46.23c1.2-.89.37-1.38-2.47-1.48a10.66,10.66,0,0,0-4.21,1,6.07,6.07,0,0,0-2.67,1.92l15,5.18q1.28,5.21-3.88,8.23t-15.7,1.52c1-.09,2.34-.27,3.95-.55s2.63-.68,3.07-1.23c-.16.32,0,.57.35.75a3.58,3.58,0,0,0,1.91.06,6,6,0,0,0,4.71-2.94,7.62,7.62,0,0,0,1.07-5Z" transform="translate(-274.86 -188.16)"/><path class="cls-2" d="M350.75,875.36v4.35a6,6,0,0,0-1.21-1.32,4.16,4.16,0,0,0-2.24-.86H336v4.34h5.18c1.61,0,2.42-.51,2.42-1.52v4.55c0-1-.81-1.52-2.42-1.52H336v6.29H347.3a4,4,0,0,0,2.24-.84,6,6,0,0,0,1.21-1.32v4.33H330.08q2.43,0,2.43-1.53V876.89q0-1.53-2.43-1.53Z" transform="translate(-274.86 -188.16)"/><path class="cls-2" d="M357.74,887.86v2.45c0,1,.8,1.5,2.41,1.53a8.25,8.25,0,0,0-3.38,1,5,5,0,0,0-2.48,2.19V876.89c0-1-.81-1.53-2.42-1.53h5.9a57.65,57.65,0,0,1,10.65.85q3.48.75,4.08,1.95c.39.8,0,1.7-1.3,2.71a25.66,25.66,0,0,1-5.44,3.09l-1.44.7,11.52,5.71a21.24,21.24,0,0,0,2.74,1,8.48,8.48,0,0,0,2.36.44h-7l-12-6Zm0-2.82,7.14-3.31q3.64-1.72,2.77-3.12c-.58-.94-3.85-1.4-9.81-1.4Z" transform="translate(-274.86 -188.16)"/><path class="cls-2" d="M377.92,875.36h6.34l7.23,13.78,7.24-13.78h6.34a3.46,3.46,0,0,0-3.18,1.42l-10.4,18.29-10.41-18.29A3.48,3.48,0,0,0,377.92,875.36Z" transform="translate(-274.86 -188.16)"/><path class="cls-2" d="M411.19,875.36q-2.43,0-2.43,1.53v13.42q.08,1.53,2.43,1.53a4.69,4.69,0,0,0-2.41,1,4.32,4.32,0,0,0-1.75,2.19,4.4,4.4,0,0,0-1.78-2.19,4.75,4.75,0,0,0-2.37-1q2.43,0,2.43-1.53V876.89q0-1.53-2.43-1.53Z" transform="translate(-274.86 -188.16)"/><path class="cls-2" d="M417.3,875.36q7.76,0,11.73,2.53c2.66,1.68,4,3.53,4,5.56s-1.24,3.91-3.84,5.64-6.59,2.63-11.93,2.73l-5.95,0c1.6,0,2.41-.51,2.41-1.53V876.89c0-1-.81-1.53-2.41-1.53Zm0,2v12.47c3.71-.1,6.49-.8,8.36-2.1s2.8-2.7,2.81-4.21-.9-2.9-2.77-4.17S421,877.4,417.3,877.34Z" transform="translate(-274.86 -188.16)"/><path class="cls-2" d="M445.49,875.38q6.31,0,9.41,2.68A7.6,7.6,0,0,1,458,884a7.87,7.87,0,0,1-3.18,5.9q-3.13,2.68-9.28,2.68t-9.29-2.68A7.87,7.87,0,0,1,433,884a7.66,7.66,0,0,1,3.05-5.9Q439.16,875.38,445.49,875.38Zm0,1.63q-4.15,0-6.15,2.17a6.72,6.72,0,0,0-2,4.78,7,7,0,0,0,2.09,4.78,9.44,9.44,0,0,0,12,0,7,7,0,0,0,2.09-4.78,6.72,6.72,0,0,0-2-4.78Q449.63,877,445.49,877Z" transform="translate(-274.86 -188.16)"/><path class="cls-2" d="M463.48,887.86v2.45c0,1,.8,1.5,2.41,1.53a8.25,8.25,0,0,0-3.38,1,5,5,0,0,0-2.48,2.19V876.89c0-1-.81-1.53-2.42-1.53h5.9a57.65,57.65,0,0,1,10.65.85q3.48.75,4.08,1.95c.39.8,0,1.7-1.3,2.71A25.66,25.66,0,0,1,471.5,884l-1.44.7,11.52,5.71a21.81,21.81,0,0,0,2.74,1,8.54,8.54,0,0,0,2.36.44h-7l-12-6Zm0-2.82,7.14-3.31q3.64-1.72,2.77-3.12c-.58-.94-3.85-1.4-9.81-1.4Z" transform="translate(-274.86 -188.16)"/><path class="cls-2" d="M501.5,875.36q7.75,0,11.74,2.53t4,5.56c0,2-1.24,3.91-3.85,5.64s-6.58,2.63-11.93,2.73l-5.95,0c1.61,0,2.41-.51,2.41-1.53V876.89c0-1-.8-1.53-2.41-1.53Zm0,2v12.47q5.56-.15,8.36-2.1c1.86-1.29,2.8-2.7,2.82-4.21s-.91-2.9-2.77-4.17S505.25,877.4,501.5,877.34Z" transform="translate(-274.86 -188.16)"/><path class="cls-2" d="M537.54,875.36v4.35a6.25,6.25,0,0,0-1.21-1.32,4.16,4.16,0,0,0-2.24-.86H522.75v4.34h5.17c1.62,0,2.43-.51,2.43-1.52v4.55c0-1-.81-1.52-2.43-1.52h-5.17v6.29h11.34a4,4,0,0,0,2.24-.84,6.25,6.25,0,0,0,1.21-1.32v4.33H516.87q2.43,0,2.43-1.53V876.89q0-1.53-2.43-1.53Z" transform="translate(-274.86 -188.16)"/><path class="cls-2" d="M573,885.33a5.85,5.85,0,0,1-3.09,5.12,15.55,15.55,0,0,1-14.45,0,5.79,5.79,0,0,1-3.07-5.12l0-8.44q0-1.53-2.4-1.53h8.38q-2.43,0-2.43,1.53v8.44a4.71,4.71,0,0,0,2,4.18,8.53,8.53,0,0,0,4.77,1.28,8.42,8.42,0,0,0,4.81-1.32,4.79,4.79,0,0,0,2-4.31v-8.29c0-1-.8-1.51-2.41-1.51h8.36c-1.6,0-2.41.51-2.41,1.53Z" transform="translate(-274.86 -188.16)"/><path class="cls-2" d="M582.48,875.36q-2.43,0-2.43,1.53v12.78h11.34a4,4,0,0,0,2.24-.84,6.25,6.25,0,0,0,1.21-1.32v4.33H574.17q2.43,0,2.43-1.53V876.89q0-1.53-2.43-1.53Z" transform="translate(-274.86 -188.16)"/><path class="cls-2" d="M620.89,875.36v4.35a5.41,5.41,0,0,0-1.19-1.32,4.13,4.13,0,0,0-2.25-.86H611v12.78a1.25,1.25,0,0,0,.78,1.11,3.43,3.43,0,0,0,1.65.42,4.74,4.74,0,0,0-2.39,1,4.3,4.3,0,0,0-1.76,2.19,4.43,4.43,0,0,0-1.77-2.19,4.71,4.71,0,0,0-2.38-1,3.34,3.34,0,0,0,1.68-.45,1.25,1.25,0,0,0,.74-1.08V877.53h-6.41a4.27,4.27,0,0,0-2.27.86,4.91,4.91,0,0,0-1.17,1.32v-4.35h23.16Z" transform="translate(-274.86 -188.16)"/><path class="cls-2" d="M630,875.36q-2.43,0-2.43,1.53v13.42q.07,1.53,2.43,1.53a4.66,4.66,0,0,0-2.4,1,4.27,4.27,0,0,0-1.75,2.19,4.48,4.48,0,0,0-1.79-2.19,4.68,4.68,0,0,0-2.37-1q2.43,0,2.43-1.53V876.89q0-1.53-2.43-1.53Z" transform="translate(-274.86 -188.16)"/><path class="cls-2" d="M638,875.36l5.73,13.2,5.73-13.2h7.89q-2.4,0-2.4,1.53v18.18a5.13,5.13,0,0,0-2.5-2.19,8.3,8.3,0,0,0-3.38-1q2.38,0,2.43-1.53V877.8L643.74,895,636,877.85v12.46q0,1.52,2.4,1.53a8.26,8.26,0,0,0-3.37,1,5,5,0,0,0-2.48,2.19V876.89q0-1.53-2.43-1.53Z" transform="translate(-274.86 -188.16)"/><path class="cls-2" d="M654.3,895.07l13.11-19.8,10,15.07a5.87,5.87,0,0,0,1,.84,4.27,4.27,0,0,0,2,.66h-7.91c1.24,0,1.59-.49,1-1.45l-2.14-3.46h-8l-2.16,3.46c-.54,1-.18,1.45,1.07,1.45a14,14,0,0,0-4.66,1.24A21.4,21.4,0,0,0,654.3,895.07Zm16.15-9.65-3-4.85-3,4.85Z" transform="translate(-274.86 -188.16)"/><path class="cls-2" d="M701.48,875.38q6.3,0,9.41,2.68c2.06,1.79,3.08,3.76,3,5.9a7.87,7.87,0,0,1-3.18,5.9q-3.13,2.68-9.27,2.68t-9.29-2.68A7.85,7.85,0,0,1,689,884a7.69,7.69,0,0,1,3-5.9Q695.14,875.38,701.48,875.38Zm0,1.63c-2.77,0-4.83.72-6.16,2.17a6.76,6.76,0,0,0-2,4.78,7,7,0,0,0,2.09,4.78,9.45,9.45,0,0,0,12,0,7,7,0,0,0,2.09-4.78,6.8,6.8,0,0,0-2-4.78Q705.6,877,701.48,877Z" transform="translate(-274.86 -188.16)"/><path class="cls-2" d="M720.87,875.36,733,887.81V876.89c0-1-.8-1.53-2.41-1.53h8.29c-1.61,0-2.41.51-2.41,1.53v18.18l-16.9-17.59v12.83a1.33,1.33,0,0,0,.62,1.06,2.93,2.93,0,0,0,1.78.47,8.21,8.21,0,0,0-3.37,1,4.93,4.93,0,0,0-2.48,2.19V876.89q0-1.53-2.43-1.53Z" transform="translate(-274.86 -188.16)"/><path class="cls-2" d="M746.22,875.36q-2.43,0-2.43,1.53v12.78h11.35a4,4,0,0,0,2.23-.84,5.76,5.76,0,0,0,1.21-1.32v4.33H737.92q2.43,0,2.43-1.53V876.89q0-1.53-2.43-1.53Z" transform="translate(-274.86 -188.16)"/><path class="cls-2" d="M768.05,875.36q-2.43,0-2.43,1.53v13.42q.07,1.53,2.43,1.53a4.69,4.69,0,0,0-2.4,1,4.32,4.32,0,0,0-1.75,2.19,4.43,4.43,0,0,0-1.79-2.19,4.69,4.69,0,0,0-2.36-1c1.62,0,2.42-.51,2.42-1.53V876.89c0-1-.8-1.53-2.42-1.53Z" transform="translate(-274.86 -188.16)"/><path class="cls-2" d="M775.43,875.36l12.09,12.45V876.89q0-1.53-2.4-1.53h8.28q-2.4,0-2.4,1.53v18.18l-16.91-17.59v12.83a1.33,1.33,0,0,0,.62,1.06,3,3,0,0,0,1.79.47,8.3,8.3,0,0,0-3.38,1,4.9,4.9,0,0,0-2.47,2.19V876.89q0-1.53-2.43-1.53Z" transform="translate(-274.86 -188.16)"/><path class="cls-2" d="M813.12,875.36v4.35a6.07,6.07,0,0,0-1.22-1.32,4.13,4.13,0,0,0-2.23-.86H798.33v4.34h5.17c1.62,0,2.43-.51,2.43-1.52v4.55c0-1-.81-1.52-2.43-1.52h-5.17v6.29h11.34a4,4,0,0,0,2.23-.84,6.07,6.07,0,0,0,1.22-1.32v4.33H792.45q2.43,0,2.43-1.53V876.89q0-1.53-2.43-1.53Z" transform="translate(-274.86 -188.16)"/></g></svg>